Inverse Dynamics Generalized Forces
version=1
nRows=5
nColumns=34
inDegrees=no
endheader 
time	pelvis_tilt_moment	pelvis_list_moment	pelvis_rotation_moment	pelvis_tx_force	pelvis_ty_force	pelvis_tz_force	hip_flexion_l_moment	hip_adduction_l_moment	hip_rotation_l_moment	hip_flexion_r_moment	hip_adduction_r_moment	hip_rotation_r_moment	knee_angle_l_moment	knee_angle_r_moment	ankle_angle_l_moment	ankle_angle_r_moment	subtalar_angle_l_moment	subtalar_angle_r_moment	mtp_angle_l_moment	mtp_angle_r_moment	lumbar_extension_moment	lumbar_bending_moment	lumbar_rotation_moment	arm_flex_l_moment	arm_add_l_moment	arm_rot_l_moment	arm_flex_r_moment	arm_add_r_moment	arm_rot_r_moment	elbow_flex_l_moment	elbow_flex_r_moment	pro_sup_l_moment	pro_sup_r_moment	
          1.92000000	         -0.00000131	          0.00000086	         -0.00000038	         -0.00000327	          0.00000981	         -0.00000170	        -58.38263256	         -5.74569294	          5.62178650	        -14.93775067	          1.63099298	          6.70152421	        -52.33594477	        -15.85521599	        -40.90181880	        -22.30695866	         11.27915049	          5.25266857	          5.37934438	          7.67050401	         74.07552381	         17.78927696	        -14.72590080	         27.30613591	        -10.49823427	          2.84519269	         16.56287306	        -13.83357562	         -1.72392878	         19.33384511	         12.89231326	          0.23651789	         -0.20311411	
          1.93000000	          0.00000092	         -0.00000212	         -0.00000016	         -0.00000068	          0.00000822	          0.00000070	       -152.43083167	         22.61753942	          0.09933101	        -11.80337542	          1.44216855	          5.54275506	         32.83724626	        -13.19048115	        -48.92031080	        -22.73217800	         12.45777155	          6.36525201	          5.82318237	          7.45106232	        130.22036799	         35.69391529	         -7.78406562	        -12.69285933	        -16.74347177	         -4.62443217	        -12.37323041	         -3.09881229	         -2.35804871	         -3.33052827	         -9.04406961	         -0.49003438	         -0.13765362	
          1.94000000	          0.00000027	          0.00000041	         -0.00000023	         -0.00000052	          0.00000879	         -0.00000127	        -72.23481650	        -19.55009263	         24.97061194	         -9.31758316	          1.03682066	          4.60649658	        -82.77556646	        -11.29421007	        -59.32333406	        -21.24578880	         16.15154375	          5.31215941	          7.03422762	          7.11911343	         81.39523109	         13.71905078	        -14.81089059	          1.53149779	        -15.09788470	         -2.16644872	          0.56293175	        -11.24351249	         -3.28395197	          3.86362145	         -0.27298569	         -0.42324434	         -0.30911385	
          1.95000000	          0.00000107	         -0.00000062	          0.00000004	         -0.00000108	          0.00000980	         -0.00000046	       -123.61119468	        -19.53066158	         25.73263385	         -8.50969538	          1.24033962	          3.80745509	        -82.16659844	         -9.15037188	        -81.63733998	        -19.60331353	         23.93750957	          6.13025566	          8.83398205	          6.35278213	        123.61097984	         24.30930479	        -19.80647396	         -3.25081203	         -8.41571068	         -1.54317310	         -7.49671290	         -6.57630344	         -1.77693993	          0.27925736	         -4.88633493	         -0.03637267	         -0.05031674	
          1.96000000	          0.00000094	         -0.00000267	         -0.00000071	          0.00000104	          0.00000926	          0.00000285	       -116.51148205	        -35.64683062	         35.90347350	          2.14377855	         -2.11658760	          2.81720762	       -122.24471567	         -8.27836268	        -93.72080140	        -16.62867108	         28.46727402	          2.23495820	          9.85741066	          5.81017830	         99.31120125	         22.31793262	        -10.49119741	         -8.92131101	          4.37921114	          0.10819273	        -11.63601756	         -1.31645364	          0.26087606	         -4.82907564	         -7.12639808	          0.58090044	          0.25808576	
